<?xml version="1.0" standalone="no"?>
<!DOCTYPE svg PUBLIC "-//W3C//DTD SVG 20010904//EN"
 "http://www.w3.org/TR/2001/REC-SVG-20010904/DTD/svg10.dtd">
<svg version="1.0" xmlns="http://www.w3.org/2000/svg"
 width="300.000000pt" height="50.000000pt" viewBox="0 0 300.000000 50.000000"
 preserveAspectRatio="xMidYMid meet">

<g transform="translate(0.000000,50.000000) scale(0.100000,-0.100000)"
fill="#000000" stroke="none">
<path d="M1090 240 c0 -64 3 -80 15 -80 12 0 15 16 15 80 0 64 -3 80 -15 80
-12 0 -15 -16 -15 -80z"/>
<path d="M1160 310 c0 -5 7 -10 15 -10 8 0 15 5 15 10 0 6 -7 10 -15 10 -8 0
-15 -4 -15 -10z"/>
<path d="M1574 310 c-28 -11 -48 -61 -39 -99 9 -44 29 -55 93 -52 37 2 25 21
-13 21 -29 0 -37 5 -46 27 -6 16 -6 36 -1 52 7 21 15 26 42 27 39 0 51 19 18
28 -28 7 -28 7 -54 -4z"/>
<path d="M970 235 l0 -75 45 0 c25 0 45 5 45 10 0 6 -13 10 -30 10 -25 0 -30
4 -30 25 0 20 5 25 25 25 14 0 25 5 25 10 0 6 -11 10 -25 10 -18 0 -25 5 -25
20 0 16 7 20 30 20 17 0 30 5 30 10 0 6 -20 10 -45 10 l-45 0 0 -75z"/>
<path d="M1160 220 c0 -47 3 -60 15 -60 12 0 15 13 15 60 0 47 -3 60 -15 60
-12 0 -15 -13 -15 -60z"/>
<path d="M1247 273 c-14 -13 -6 -22 19 -20 15 1 29 -4 31 -10 3 -8 -4 -13 -17
-13 -32 0 -60 -18 -60 -40 0 -20 32 -44 44 -33 3 3 19 6 36 5 29 -1 30 1 30
43 0 26 -6 50 -16 59 -16 16 -55 22 -67 9z m51 -75 c-5 -15 -48 -24 -48 -10 0
14 12 22 33 22 10 0 17 -5 15 -12z"/>
<path d="M1370 265 c-16 -20 -6 -43 25 -57 34 -15 32 -28 -5 -28 -16 0 -30 -4
-30 -9 0 -14 40 -20 66 -11 34 13 31 46 -6 65 -36 19 -40 40 -6 31 28 -7 45 9
20 18 -26 10 -51 7 -64 -9z"/>
<path d="M1680 220 c0 -46 3 -60 14 -60 10 0 16 13 18 38 2 27 9 40 26 47 24
10 30 35 9 35 -7 0 -18 -5 -24 -11 -8 -8 -13 -8 -17 0 -16 26 -26 7 -26 -49z"/>
<path d="M1787 273 c-11 -10 -8 -72 3 -94 9 -15 20 -19 55 -17 l45 1 0 59 c0
72 -22 77 -30 7 -4 -36 -9 -44 -25 -44 -17 0 -20 8 -23 48 -3 44 -10 56 -25
40z"/>
<path d="M1930 265 c0 -8 9 -15 20 -15 26 0 25 -5 -5 -44 -14 -18 -25 -36 -25
-39 0 -4 23 -7 50 -7 28 0 50 5 50 10 0 6 -14 10 -30 10 l-31 0 26 37 c35 52
33 63 -15 63 -29 0 -40 -4 -40 -15z"/>
</g>
</svg>
